<svg width="287" height="240" viewBox="0 0 287 240" fill="none" xmlns="http://www.w3.org/2000/svg">
<path fill-rule="evenodd" clip-rule="evenodd" d="M181.843 224.721C181.843 233.16 174.976 240 166.506 240H85.3739C70.6663 240 50.1591 234.997 32.8663 222.738C14.7708 209.91 -2.66184e-06 188.846 0 158.515C2.66184e-06 128.183 14.7708 107.119 32.8663 94.2909C50.1591 82.0321 70.6663 77.0292 85.3739 77.0292L166.506 77.0292C174.976 77.0292 181.843 83.8696 181.843 92.3077V115.225L85.3739 115.225C77.973 115.225 65.379 118.123 55.0978 125.412C45.6193 132.131 38.3432 142.26 38.3432 158.515C38.3432 174.769 45.6193 184.898 55.0977 191.618C65.379 198.906 77.973 201.804 85.3739 201.804H143.5V172.601H181.843V224.721Z" fill="currentColor"/>
<path fill-rule="evenodd" clip-rule="evenodd" d="M105.157 15.2785C105.157 6.84043 112.024 0 120.494 0H201.626C216.334 0 236.841 5.00291 254.134 17.2618C272.229 30.0897 287 51.1541 287 81.4854C287 111.817 272.229 132.881 254.134 145.709C236.841 157.968 216.334 162.971 201.626 162.971H120.494C112.024 162.971 105.157 156.13 105.157 147.692V124.775H201.626C209.027 124.775 221.621 121.877 231.902 114.588C241.381 107.869 248.657 97.7399 248.657 81.4854C248.657 65.2309 241.381 55.1017 231.902 48.3825C221.621 41.0941 209.027 38.1963 201.626 38.1963H143.5V67.3991H105.157V15.2785Z" fill="currentColor"/>
</svg>
