<svg width="126" height="126" viewBox="0 0 126 126" fill="none" xmlns="http://www.w3.org/2000/svg">
<circle cx="63" cy="63" r="63" fill="#2C2D2F"/>
<path fill-rule="evenodd" clip-rule="evenodd" d="M72.9755 92.1684C72.9755 94.5296 71.0614 96.4436 68.7003 96.4436H46.4413C42.4095 96.4436 36.7668 95.0634 32.0116 91.6795C27.0477 88.147 23 82.3548 23 73.9989C23 65.643 27.0477 59.8507 32.0116 56.3182C36.7668 52.9344 42.4095 51.5541 46.4413 51.5541L68.7003 51.5541C71.0614 51.5541 72.9755 53.4682 72.9755 55.8293V61.5296L46.4413 61.5296C44.3105 61.5296 40.7264 62.3601 37.7954 64.4458C35.0733 66.383 32.9755 69.3193 32.9755 73.9989C32.9755 78.6785 35.0733 81.6148 37.7954 83.5519C40.7264 85.6377 44.3105 86.4682 46.4413 86.4682H63V78.2967H72.9755V92.1684Z" fill="#F1F4F8"/>
<path fill-rule="evenodd" clip-rule="evenodd" d="M53.0245 34.2752C53.0245 31.9141 54.9386 30 57.2997 30H79.5587C83.5905 30 89.2332 31.3803 93.9884 34.7641C98.9523 38.2966 103 44.0888 103 52.4448C103 60.8007 98.9523 66.5929 93.9884 70.1254C89.2332 73.5093 83.5905 74.8895 79.5587 74.8895H57.2997C54.9386 74.8895 53.0245 72.9755 53.0245 70.6143V64.9141H79.5587C81.6895 64.9141 85.2736 64.0836 88.2046 61.9978C90.9267 60.0607 93.0245 57.1244 93.0245 52.4448C93.0245 47.7652 90.9267 44.8289 88.2046 42.8917C85.2736 40.806 81.6895 39.9755 79.5587 39.9755H63V48.1469H53.0245V34.2752Z" fill="#F1F4F8"/>
</svg>
