<svg width="600" height="340.53" version="1.1" viewBox="0 0 600 340.53" xmlns="http://www.w3.org/2000/svg">
    <g>
        <path d="m14.67 252.02c0.69563-15.996 6.6739-19.125 16.903-28.02 10.23-8.895 35.579-29.355 40.473-32.024 4.8941-2.6681 11.12-1.7798 13.789-4.0026 2.6689-2.2228 16.231-21.57 31.8-21.57s21.127 5.5584 21.574 9.119c0.44621 3.5596-5.337 2.6681-5.337 4.0026s10.672 7.3383 13.34 10.007c2.6689 2.6681-1.9988 6.534-3.1118 9.1182-0.6693 1.5567 0.65365 9.9142-3.3357 10.229-8.4513 0.66766-12.675-4.8916-14.456-3.1143-1.6942 1.6918 0.44621 8.4522 0.44621 12.009 0 3.5572 0.44783 21.795 3.5596 25.798 3.1118 4.0026 6.2236 10.229 17.789 17.346 11.566 7.1177 16.012 8.8975 21.795 15.124 5.7824 6.2261 15.123 20.458 10.674 26.241-4.4488 5.7824-5.7824 0.88909-10.674-1.3345-4.8916-2.2228-8.8975-0.44292-11.12-6.2261-2.2228-5.7832-10.229-19.572-16.9-17.792 0 0 3.1143 17.792 6.6715 23.13 3.5572 5.3379 8.4522 20.458 8.4522 23.572s4.0026 3.1143 4.0026 7.5606-5.7832 4.448-13.789 4.448-8.4522-2.6681-8.0059-4.8908c0.44618-2.2228 6.6715-3.5572 5.337-6.6715s-5.7799 3.1143-7.5606 0-1.7831-4.8908 0.44288-8.8951c2.226-4.0026 2.226-5.7824 2.226-8.006s-14.681-18.24-19.572-22.244c-4.8916-4.0026-20.458-11.563-20.458-15.123v-18.235c0-1.3345-6.6739-8.006-10.232-8.006s-20.458 7.5606-20.458 11.563c0 4.0025 17.346 21.795 16.9 32.023-0.44537 10.23-4.8941 26.241-4.4488 37.362 0 0 17.792 8.8951 21.795 8.8951s6.6715-4.0026 6.6715 0.88825c0 4.8917-5.3346 4.4488-8.8951 4.8917-3.5605 0.44288-37.809 2.2227-39.587-0.44621-1.7773-2.6681-0.88579-18.68-0.44288-27.132 0.44288-8.4513 4.4463-16.9 4.4463-20.461 0-3.5605-5.337-5.7824-12.898-10.229 0 0-0.44292 9.3404-3.5572 13.343-3.1143 4.0026-26.981 17.284-27.132 20.461-0.66762 14.011 20.015 17.568 20.015 22.462h-24.464s-17.346-19.348-17.346-22.462 19.572-27.132 24.463-28.02c4.8916-0.88828 4.8916-1.3345 4.8916-4.4488s-15.124-20.01-14.677-30.239z"/>
        <path d="m329.13 85.235c0-1.7798 7.1152-2.2227 7.1152-6.2261 0-4.0026-4.8908-2.6689-4.8908-4.0026 0-1.3345 3.1135-4.8917 0-8.006-3.1143-3.1143-15.124-8.8975-19.569-8.8975s-13.343 0-16.903 1.7798c-3.5605 1.7798-16.012 13.343-20.458 17.792-4.4463 4.4488-19.126 9.3404-25.798 16.012-6.6715 6.6715-19.569 16.455-24.463 27.575-4.8941 11.12-8.0035 23.13-14.675 34.247-6.6715 11.118-15.171 16.911-14.681 30.689 0.44292 12.455 7.5631 18.68 10.232 22.238s4.8917 22.684 6.2261 27.575c1.3345 4.8916 10.232 14.232 10.232 14.232s-0.44618 2.6689-5.7832 6.2261c-5.337 3.5572-8.4513 10.675-8.4513 10.675s-2.2227 18.24-2.2227 27.135-4.8917 21.796-7.1177 25.798c-2.226 4.0026-8.0059 8.4514-3.1118 12.898 4.8941 4.4455 14.677-3.1143 21.349-2.6689 6.6715 0.44621 36.915 3.5572 36.915 3.5572 0.44537-10.229-12.898-10.229-18.235-10.229s-12.455-12.455-12.455-18.681c0-6.2261 4.8916-13.343 4.8916-13.343s16.457-31.135 20.461-40.03c4.0026-8.895 7.5606-3.1143 7.5606-3.1143l-0.44291 12.009-0.44618 1.7798c-5.7832 7.1177-6.6715 17.792-1.7798 28.467 4.8916 10.674 3.5597 24.906 3.5597 28.02s-0.89158 13.343 0.8891 16.9c1.7806 3.5572 8.4513 2.6689 8.4513 2.6689l53.373 2.2228-0.89155-4.8917c-0.89074-4.8908-6.2261-2.6681-10.229-2.6681-4.0026 0-14.678-5.7832-20.904-9.7866-6.2261-4.0026-10.675-19.125-10.232-27.132 0.44291-8.006 5.337-39.141 5.337-51.593s-4.4488-11.563-7.5606-16.9c-1.3081-2.2417-2.0457-4.303-2.4862-5.9684-0.32847-0.35399-0.64624-0.745-0.95166-1.2093-3.7185-5.6861-5.3453-13.364-6.2442-20.01-0.6619-4.8892-1.36-10.586 0.39596-15.386 0.0495-0.70881 0.0831-1.4176 0.17704-2.1264 0.0881-0.66519 0.29154-1.2875 0.58613-1.8366-0.27816-0.47169-0.47913-1.0117-0.54992-1.6473 2.296 2.1157 4.0972 3.6823 4.9312 4.1853 3.9927 2.4203 17.187 5.9289 21.597 9.7677 2.8146 2.4524 0.90144 5.4235 2.7002 10.029 1.1574 2.9521 3.1217 7.6223 9.906 5.1468 4.9781-1.8136 9.6195-2.5882 11.227-7.172 3.3201-9.4705-10.797-18.254-17.078-22.053-5.598-3.3958-16.71-12-22.113-20.655 1.4489-2.4236 2.7389-4.9361 3.9565-7.4939-0.22402-2.6714-0.13597-6.1364 0.17207-11.196 0.88825-14.677 4.4488-7.5606 8.0059-9.3404 3.5572-1.7806 4.0034-9.3404 4.0034-15.567 0-6.2261 12.454-9.7858 15.124-10.675 2.6681-0.88909 8.4488-0.88909 10.229 1.7798 1.7798 2.6689 9.7866 1.7798 13.344 1.3345 3.5564-0.44618 5.337-8.4522 5.337-12.009-8.1e-4 -3.5572-7.5614-8.4489-7.5614-10.226z"/>
        <path d="m389.17 74.56s-2.6681-17.792 7.5606-25.352c10.23-7.5606 12.007-6.6715 22.239-7.1177 10.231-0.44537 16.9 2.2235 18.68 5.337 1.7798 3.1143 2.2252 6.6715 2.2252 6.6715s5.337 2.2227 5.337 5.337-4.0026 1.3345-4.0026 4.4488 5.7799 9.7858 4.8908 11.563c-0.88826 1.7774-5.3362-2.2227-5.3362 0.4462 0 2.6681 0.44537 8.4513-2.6689 11.12-3.1143 2.6689-14.235 1.7774-17.792 3.1118-3.5572 1.3344-7.1177 5.7832-8.0059 9.7858-0.88828 4.0026 6.2278 10.229 5.7824 16.9-0.44537 6.6715-10.229 14.232-10.229 23.572 0 9.3404 11.118 15.124 16.9 19.126 5.7824 4.0034 16.903 5.337 21.795 5.337 4.8908 0 15.967 0.12912 17.346 6.6715 0.66765 3.1694-1.709 5.2119-3.9194 7.9648-3.0122 3.7531-5.7445 1.7716-7.4223 0.48489-2.6146-2.0021-2.552-4.3524-5.0036-4.7805-3.8363-0.66684-12.564 1.8926-15.678 1.8926-3.1143 0-26.687-6.0071-28.021-6.0071-1.3337 0-0.44537 8.4489-0.44537 11.563 0 3.1143 15.123 17.346 18.68 24.464 3.5572 7.1177 17.346 31.578 17.346 38.249s-9.3404 36.473-9.3404 41.81-1.7773 16.012-1.7773 20.904c0 4.8908 10.675 14.232 15.566 16.457 4.8916 2.2252 20.907 8.4522 20.461 13.789l-28.467 0.44537s-11.12-2.6689-16.012-2.2227c-4.8908 0.44537-14.68 3.5572-16.457-0.88909-1.7774-4.4455-0.44291-10.674 3.5596-16.011 4.0026-5.337 3.5572-14.232 3.5572-19.569s-5.337-12.009-6.6715-20.015c-1.3337-8.0059 0-17.792 4.0034-21.35 4.0026-3.5572 6.2261-7.1177 4.0026-11.12-2.2236-4.0026-12.009-10.229-12.009-10.229s-0.88828 15.566-2.2228 18.234c-1.3345 2.6689-16.012 12.898-22.683 19.569-6.6715 6.6715-21.35 19.569-23.13 27.132-1.7798 7.5631-3.5597 16.457 2.2227 20.461 5.7824 4.0034 14.235 6.2261 13.789 9.3412-0.44621 3.1135 0.89071 3.5564-4.8917 3.5564-5.7824 0-14.232 1.3345-17.346-3.1135-3.1143-4.4488-6.2286-10.675-12.455-12.455-6.2261-1.7798-8.8975 0.44537-9.7866-4.8916-0.88826-5.337 1.7774-8.006 5.337-12.455 3.5596-4.4479 17.792-13.343 17.792-18.68s-0.89155-12.9 8.895-20.461c9.7858-7.5606 17.788-12.455 17.346-18.681-0.44288-6.2261-7.563-10.674-8.0059-16.011-0.44288-5.337 2e-3 -16.012-5.7799-22.684-5.7824-6.6715-5.337-13.343-5.337-21.795 0-8.4522 1.7773-11.12-3.5597-17.346-5.337-6.2261-10.675-22.238-10.675-32.469 0-10.232 11.563-23.575 18.235-28.021 6.6715-4.4463 7.5631-12.898 12.455-16.012 4.8941-3.1126 19.129-16.008 19.129-16.008z"/>
        <path d="m577.65 171.68c1.3649-1.6341 0.95823-1.2991 1.2513-3.9203 0.0831-0.75079-0.201-1.8218-0.4174-2.3347-1.2776-3.0336-7.3498-7.9047-8.2126-9.7899-1.2456-2.7117-3.8832-7.0337-7.8002-10.997-3.917-3.9631-19.52-25.606-22.517-29.501-1.6679-2.1684 1.5559-34.582 1.5559-36.805 0-2.2236-5.337-17.79-5.337-20.459 0-2.6689 0.22215-12.233 0.22215-12.233s8.006 0.88909 9.7858-0.44619c1.7798-1.3345 1.7798-3.5572 1.7798-3.5572l1.3345-2.6689s-0.44537-4.0001-0.44537-6.2261 3.5572 2.2227 3.5572-0.4462-6.6715-10.229-6.6715-12.898c0-2.6689 2.2252-0.89157 2.2252-3.1143s-3.1135-3.1118-6.2278-8.4488-13.787-8.895-20.458-7.5606c-6.6715 1.3345-17.792 7.563-17.792 20.015 0 12.451 11.12 22.238 11.12 22.238s-2.6681 4.4512-6.6715 5.7857c-4.0026 1.3345-4.8933 5.337-8.4513 10.229-3.558 4.8917-10.23 16.012-9.7833 20.904 0.44537 4.8917-7.5639 29.355-7.5639 34.693 0 5.3379 2.2228 11.563 4.0026 18.235 1.7806 6.6715 9.3412 20.015 9.3412 20.015s0.44534 16.012 0.44534 23.572c0 7.5606 8.006 10.229 8.006 10.229s-0.44537 46.251-3.1135 53.813c-2.6689 7.5639-12.009 20.461-12.009 20.461s-0.44537 29.8-0.44537 40.03c0 10.229-3.5572 14.231-4.4463 20.015-0.88829 5.7824 2.2227 11.12 2.2227 11.12l46.701 1.3336v-5.3362c0-5.337-14.677-4.0034-19.126-6.2261-4.448-2.2228-6.2261-6.6715-6.2261-11.12s-1.3345-19.569 0.8891-27.575c2.2227-8.0059 14.235-40.918 14.235-40.918l5.7799-15.567s5.3362 5.337 8.8975 12.898c3.5597 7.5606 2.6681 8.4497-0.89156 15.567-3.5597 7.1168-2.2227 13.788 1.3344 24.018 3.5572 10.229 7.1177 28.02 7.1177 34.247v24.464s44.478 0.88829 49.37 0.88829c4.8908 0 5.7824 4.8916 5.7824-2.2228s-7.1177-5.7824-18.68-7.5606c-11.564-1.7774-19.572-22.238-19.572-22.238s-0.44291-55.153-0.88909-72.499c-0.44537-17.346-3.1135-21.793-4.448-36.915-1.3345-15.123-13.343-34.693-13.343-34.693l-1.7774-16.012-0.11264-4.5031s5.752 3.9746 12.729 12.949c1.6053 2.0663 5.6128 7.107 7.7326 8.0125 0.73763 0.31531 1.4489 0.2486 1.7798 1.1114 3.4452 9.0078 4.1516 10.345 7.894 10.202 2.1668-0.0831 4.3846 0.0831 6.3364-2.2515z"/>
    </g>
</svg>